<?xml version="1.0" encoding="utf-8"?>
<!-- Generator: Adobe Illustrator 25.2.3, SVG Export Plug-In . SVG Version: 6.00 Build 0)  -->
<svg version="1.1" id="Layer_1" xmlns="http://www.w3.org/2000/svg" xmlns:xlink="http://www.w3.org/1999/xlink" x="0px" y="0px"
	 viewBox="0 0 87.6767 77.0714" style="enable-background:new 0 0 87.6767 77.0714;" xml:space="preserve">
<style type="text/css">
	.st0{fill:#E63A51;}
	.st1{fill:#F26C6E;}
	.st2{fill:#AE2739;}
	.st3{fill:#FFFFFF;}
</style>
<g>
	<path class="st0" d="M0,27.5804c0.6779-1.4625,1.8261-1.9549,3.4156-1.9084c2.7464,0.0802,5.4974,0.0064,8.2464-0.0028
		c0.2565-0.1239,0.5176-0.231,0.8093-0.2337c1.6996-0.0157,3.3992-0.0223,5.0987,0.0047c0.2556,0.0041,0.5111,0.0369,0.7103,0.2293
		c6.2978,0.0091,12.5956,0.0166,18.8934,0.0281c2.2223,0.0041,4.4447,0.0179,6.667,0.0273c0.2903,0.2961,0.2647,0.678,0.2653,1.0433
		c0.0081,4.4604,0.009,8.9207,0.0007,13.3811c-0.0005,0.284-0.0094,0.5692-0.1231,0.8382c-0.0522,0.1059-0.13,0.1878-0.2315,0.2475
		c-0.4044,0.1837-0.8368,0.1488-1.262,0.1489C30.724,41.3873,18.958,41.387,7.1919,41.3837
		c-0.4797-0.0001-0.9765,0.0598-1.4014-0.2556c-0.7928-0.0066-1.5911-0.0753-2.3773-0.0066C1.8245,41.2604,0.6793,40.6823,0,39.2248
		C0,35.3434,0,31.4619,0,27.5804z"/>
	<path class="st0" d="M81.8914,41.133c-1.3865,4.891-2.7669,9.7838-4.161,14.6726c-1.8147,6.364-3.6379,12.7255-5.463,19.0865
		c-0.4559,1.5891-1.254,2.1762-2.919,2.1764c-8.2447,0.0009-16.4893,0.0007-24.734-0.0007c-0.2562,0-0.5124-0.0169-0.7685-0.026
		c-0.2724-0.2666-0.2743-0.6162-0.2757-0.9565c-0.0111-2.79-0.0118-5.58-0.0002-8.37c0.0012-0.285,0.0199-0.5702,0.1563-0.8307
		c0.1864-0.2846,0.5019-0.3642,0.7909-0.4751c1.1717-0.4494,1.6335-1.3447,1.6343-2.545c0.0015-2.3964,0.0003-4.7928,0.0009-7.1891
		c0.0006-2.3393-0.0412-4.6796,0.0147-7.0176c0.0369-1.5424-0.4163-2.686-1.9952-3.1713c-0.1635-0.0503-0.3092-0.1464-0.4172-0.2887
		c-0.264-1.6953-0.389-3.3887,0.0676-5.0742l0.0306-0.0306c0.3317-0.296,0.7441-0.2589,1.1391-0.2591
		c11.8986-0.0058,23.7973-0.0061,35.6959,0.0014C81.1061,40.8356,81.5561,40.7696,81.8914,41.133z"/>
	<path class="st1" d="M43.8382,66.7914c0.0025,3.4168,0.0051,6.8337,0.0077,10.2505c-5.3618,0.009-10.7237,0.0199-16.0855,0.0264
		c-3.1661,0.0038-6.3321,0.0049-9.4982-0.0012c-1.5311-0.003-2.4103-0.6516-2.8261-2.1059
		c-3.208-11.2207-6.4099-22.4431-9.613-33.6652c-0.0156-0.0546-0.0219-0.1119-0.0326-0.1679
		c5.4697-0.0065,10.9395-0.0182,16.4092-0.0184c7.2076-0.0002,14.4152,0.0087,21.6227,0.0138
		c0.0051,1.7085,0.0104,3.4169,0.0157,5.1253c-0.0343,0.0367-0.0686,0.0735-0.1023,0.111c-0.2369,0.1635-0.517,0.2345-0.7723,0.3596
		c-0.933,0.457-1.4326,1.2027-1.4361,2.2391c-0.0168,5.0374-0.0164,10.0749-0.0004,15.1124c0.0033,1.0409,0.5332,1.77,1.437,2.2488
		c0.2515,0.1332,0.5346,0.198,0.773,0.3595C43.7712,66.7161,43.8047,66.7538,43.8382,66.7914z"/>
	<path class="st2" d="M81.8914,41.133c-1.7094-0.0082-3.4187-0.0225-5.1281-0.0236c-10.9702-0.007-21.9405-0.0111-32.9106-0.0163
		c-0.004-5.1228-0.008-10.2455-0.0121-15.3682c4.1583-0.0094,8.3165-0.0196,12.4748-0.028
		c4.3579-0.0088,8.7158-0.016,13.0737-0.0238c0.2769-0.2577,0.6278-0.24,0.965-0.2426c1.5324-0.0118,3.0649-0.0046,4.5973-0.0053
		c0.377-0.0002,0.7329,0.0659,1.0656,0.2457c2.9664,0.0086,5.9328,0.0166,8.8992,0.0261c1.7316,0.0055,2.756,1.0256,2.7577,2.7562
		c0.0033,3.3092,0.0039,6.6185-0.0003,9.9277c-0.0021,1.6732-1.0424,2.7162-2.7022,2.7277
		C83.9448,41.1157,82.9181,41.1248,81.8914,41.133z"/>
	<path class="st3" d="M76.0171,25.671c-2.2094,0.0008-4.4189,0.0016-6.6281,0.0023c-1.9782-2.5042-3.947-5.016-5.937-7.5109
		c-3.6638-4.5936-7.3419-9.1756-11.0096-13.766c-1.0445-1.3072-0.9504-2.8687,0.2117-3.8079
		c1.1748-0.9495,2.7432-0.7311,3.7694,0.5502c6.4717,8.0811,12.9385,16.1661,19.4059,24.2507
		C75.8995,25.4771,75.9548,25.5768,76.0171,25.671z"/>
	<path class="st3" d="M18.2803,25.6695c-2.2061-0.0001-4.4122-0.0002-6.6183-0.0003c4.8193-6.039,9.6378-12.0787,14.4584-18.1166
		c1.6546-2.0725,3.3127-4.1423,4.9727-6.2105c1.1779-1.4676,2.6866-1.753,3.927-0.7504c1.2219,0.9877,1.2365,2.5264,0.0482,4.0108
		C29.5619,11.481,24.0576,18.361,18.5548,25.2421C18.4496,25.3737,18.3712,25.5266,18.2803,25.6695z"/>
	<path class="st3" d="M55.6419,63.672c0.2654-1.6328,0.5931-3.676,0.9306-5.7176c0.49-2.9648,0.991-5.9278,1.4793-8.8929
		c0.2043-1.2406,0.6034-2.3129,1.9804-2.7049c1.5581-0.4436,3.1502,0.674,3.1596,2.2928c0.0109,1.857-0.4983,3.6491-0.781,5.4685
		c-0.5093,3.2774-1.0837,6.5446-1.6176,9.8182c-0.165,1.0115-0.421,1.9671-1.3894,2.5152
		C57.6167,67.4626,55.628,66.2093,55.6419,63.672z"/>
	<path class="st3" d="M43.8381,46.2488c1.5815,0.1196,2.5643,1.1464,2.5659,2.7127c0.0053,5.039,0.0054,10.0781-0.0001,15.1171
		c-0.0017,1.5666-0.9859,2.5948-2.5657,2.7128c0,0,0.0025,0.0026,0.0025,0.0026c-0.2951-0.3277-0.277-0.7357-0.2774-1.1326
		c-0.0056-6.0942-0.0056-12.1884,0-18.2825c0.0004-0.3969-0.0178-0.8049,0.2773-1.1326L43.8381,46.2488z"/>
	<path class="st3" d="M24.6499,48.9524c-0.0039-1.474,0.8439-2.5165,2.195-2.6979c1.3037-0.175,2.5098,0.6723,2.7767,2.1054
		c0.5551,2.9806,1.0354,5.9752,1.5426,8.9646c0.3271,1.9277,0.663,3.8542,0.964,5.786c0.1409,0.9042,0.2342,1.8316-0.3691,2.632
		c-0.6183,0.8203-1.4687,1.192-2.4762,1.0112c-1.078-0.1935-1.8232-0.8716-2.0353-1.9467
		c-0.3949-2.0013-0.7094-4.0186-1.0462-6.0311c-0.4866-2.907-0.9542-5.8172-1.4556-8.7216
		C24.6819,49.684,24.672,49.3204,24.6499,48.9524z"/>
	<path class="st3" d="M43.8406,46.2462c0,6.8493,0,13.6985,0,20.5478c-1.528-0.1144-2.569-1.2098-2.5702-2.7277
		c-0.004-5.0356-0.0043-10.0712,0.0002-15.1068C41.272,47.4357,42.3011,46.3598,43.8406,46.2462z"/>
</g>
</svg>
