<?xml version="1.0" encoding="utf-8"?>
<!-- Generator: Adobe Illustrator 25.2.3, SVG Export Plug-In . SVG Version: 6.00 Build 0)  -->
<svg version="1.1" id="Layer_1" xmlns="http://www.w3.org/2000/svg" xmlns:xlink="http://www.w3.org/1999/xlink" x="0px" y="0px"
	 viewBox="0 0 80 48.102" style="enable-background:new 0 0 80 48.102;" xml:space="preserve">
<style type="text/css">
	.st0{fill:#FFD550;}
	.st1{fill:#529ED7;}
	.st2{fill:#68686C;}
	.st3{fill:#46474F;}
	.st4{fill:#F9A01C;}
	.st5{fill:#EEEDEE;}
	.st6{fill:#EEEDED;}
</style>
<g>
	<path class="st0" d="M3.9842,22.6823c0.0006-0.8794,0.0012-1.7588,0.0018-2.6381c0.3887-0.3793,0.885-0.2712,1.3437-0.2721
		c4.9978-0.0091,9.9957-0.0048,14.9935-0.0065c0.4159-0.0001,0.8377,0.0323,1.2425-0.0848
		c0.5073-0.1467,0.8143-0.4804,0.7954-1.0287c-0.0176-0.5083-0.3237-0.8125-0.7955-0.946
		c-0.4056-0.1147-0.8268-0.0842-1.2427-0.0844c-4.9978-0.0017-9.9957,0.0027-14.9935-0.0065
		c-0.4587-0.0008-0.955,0.1073-1.3437-0.2721c0.0001-0.8799,0.0001-1.7597,0.0002-2.6396c0.3887-0.3793,0.885-0.2712,1.3437-0.2721
		c4.9978-0.0091,9.9957-0.0048,14.9935-0.0065c0.4159-0.0001,0.8377,0.0323,1.2425-0.0848
		c0.5073-0.1467,0.8143-0.4804,0.7954-1.0287c-0.0176-0.5083-0.3237-0.8125-0.7955-0.946
		c-0.4056-0.1147-0.8268-0.0842-1.2427-0.0844c-4.9978-0.0017-9.9957,0.0027-14.9935-0.0065
		c-0.4587-0.0008-0.955,0.1073-1.3437-0.2721c-0.0005-0.8794-0.0011-1.7587-0.0016-2.6381
		c0.3606-0.3642,0.8281-0.2689,1.2602-0.2702c3.3044-0.0102,6.6088-0.0041,9.9132-0.0063c0.3883-0.0003,0.7833,0.0253,1.1555-0.1087
		c0.4644-0.1673,0.7327-0.5011,0.715-1.0082c-0.0164-0.4686-0.2843-0.7732-0.7148-0.9255c-0.373-0.132-0.7673-0.1081-1.1556-0.1084
		c-3.3044-0.0022-6.6088,0.0039-9.9132-0.0063c-0.4322-0.0013-0.8996,0.094-1.2602-0.2702C3.9895,5.8266,3.9931,4.9928,4.0004,4.159
		c0.0211-2.4312,1.7223-4.1513,4.1515-4.154c7.6454-0.0087,15.2908-0.0034,22.9363-0.0034c5.9773,0,11.9547-0.0018,17.932,0.0009
		c2.5881,0.0012,4.1465,1.4212,4.4109,4.0062c0.2712,0.3306,0.2417,0.7298,0.242,1.1162
		c0.0053,7.6751,0.0059,15.3501,0.0003,23.0252c-0.001,1.3442-0.1603,1.4939-1.5737,1.4944
		c-12.5147,0.0046-25.0294,0.002-37.5441,0.0023c-3.087,0.0001-6.1739,0.0043-9.2609-0.0044
		c-0.4363-0.0012-0.9,0.0736-1.2694-0.2679c-0.0137-1.3294-0.0274-2.6588-0.0411-3.9881c0.3606-0.3642,0.8281-0.2689,1.2602-0.2702
		c3.3044-0.0103,6.6088-0.0041,9.9132-0.0063c0.3883-0.0003,0.7833,0.0254,1.1555-0.1087c0.4644-0.1673,0.7327-0.5011,0.715-1.0082
		c-0.0164-0.4686-0.2843-0.7732-0.7148-0.9255c-0.373-0.132-0.7673-0.1081-1.1556-0.1084
		c-3.3044-0.0022-6.6088,0.0039-9.9132-0.0063C4.8122,22.9512,4.3448,23.0465,3.9842,22.6823z"/>
	<path class="st1" d="M4.0252,29.3744c16.1512,0.0002,32.3024-0.0056,48.4536,0.0188c0.7688,0.0012,0.9458-0.203,0.9431-0.9529
		c-0.0284-7.8108-0.0178-15.6217-0.0164-23.4326c0.0001-0.333,0.0166-0.666,0.0255-0.9991
		c3.6714-0.0006,7.3428-0.0027,11.0142-0.0011c2.2498,0.0009,3.5908,0.9537,4.3053,3.0844c1.3771,4.1066,2.7488,8.215,4.104,12.3289
		c0.1592,0.4834,0.3999,0.7582,0.883,0.9856c1.4743,0.6939,2.3001,1.8927,2.3566,3.5468c0.0313,0.916-0.0081,1.8344-0.0156,2.7518
		c-0.2972,0.2771-0.6714,0.2315-1.0284,0.2344c-1.1681,0.0094-2.3366-0.0134-3.5045,0.0084
		c-1.9411,0.0362-3.0467,1.1686-3.0467,3.0947c0,1.9261,1.1057,3.0585,3.0467,3.0947c1.1679,0.0218,2.3363-0.0011,3.5045,0.0084
		c0.357,0.0029,0.7312-0.0427,1.0284,0.2344c0.0096,1.3266,0.0193,2.6532,0.0289,3.9798c-0.1915,0.247-0.4737,0.2695-0.7462,0.2712
		c-1.2355,0.0079-2.4716,0.0619-3.705-0.0304c-0.4036-0.0605-0.6081-0.3557-0.7827-0.6805
		c-2.1619-4.0221-8.0779-4.1943-10.9685-1.6127c-0.5237,0.4677-0.9254,1.0325-1.2781,1.6334
		c-0.1883,0.3209-0.3969,0.6066-0.8022,0.6647c-0.3882,0.0627-0.778,0.0488-1.1668,0.0489
		c-11.0906,0.0012-22.1812,0.0013-33.2717,0.0001c-0.361,0-0.723,0.0115-1.0803-0.0407c-0.4382-0.0533-0.6639-0.3644-0.8513-0.7177
		c-2.3729-4.4746-9.9212-4.3416-12.2105,0.0003c-0.1709,0.3242-0.3684,0.6283-0.7757,0.6971
		c-1.2408,0.1046-2.4821,0.0451-3.7227,0.0386c-0.2737-0.0014-0.557-0.0245-0.7495-0.2722
		C4.0059,34.698,4.0156,32.0362,4.0252,29.3744z"/>
	<path class="st2" d="M22.0272,37.4022c8.6782-0.0055,17.3564-0.0129,26.0347-0.0154c3.3377-0.001,6.6754,0.0094,10.0131,0.0146
		c0.208,0.2708,0.0495,0.5345-0.0307,0.7888c-0.5342,1.6947-0.5302,3.3851,0.0066,5.0782c0.0813,0.2566,0.2267,0.5212,0.0275,0.792
		c-12.0179-0.0006-24.0358-0.0011-36.0537-0.0017c-0.1811-0.2382-0.0722-0.48,0.0037-0.7126
		c0.5694-1.7448,0.574-3.4878,0.0063-5.2342C21.9597,37.8816,21.8379,37.6404,22.0272,37.4022z"/>
	<path class="st3" d="M22.0272,37.4022c0.8968,2.2192,0.8861,4.438-0.0026,6.6565c-2.3562,5.4157-11.0212,5.3657-13.3509,0.0017
		c-0.5309-0.4177-0.5827-1.0476-0.7218-1.6374c-0.3271-1.3871-0.211-2.7565,0.1683-4.1156c0.0991-0.3551,0.2416-0.68,0.5498-0.9064
		c1.4666-2.8269,3.8414-4.0899,6.9719-4.0106C18.5554,33.4643,20.6859,34.8123,22.0272,37.4022z"/>
	<path class="st3" d="M58.0783,44.0604c-0.8873-2.2193-0.8981-4.439-0.0034-6.6591c1.466-2.8275,3.8411-4.0899,6.9715-4.0109
		c2.9136,0.0735,5.0437,1.4222,6.3856,4.0115c0.0747,0.0824-0.0111-0.028,0.0613,0.0564c1.1571,1.348,1.1188,5.2798-0.0642,6.6005
		C69.0731,49.4743,60.4081,49.4246,58.0783,44.0604z"/>
	<path class="st4" d="M3.9858,12.0025c5.6181,0.0051,11.2363,0.0101,16.8544,0.0159c0.2502,0.0003,0.5049-0.0206,0.7496,0.018
		c0.673,0.1061,1.1293,0.6738,1.0988,1.3581c-0.0314,0.7062-0.4228,1.1301-1.0995,1.2732c-0.2403,0.0508-0.4987,0.0197-0.7489,0.02
		c-5.6181,0.0058-11.2363,0.0107-16.8544,0.0158c-0.7822-0.1157-1.3032-0.5278-1.3033-1.3511
		C2.6826,12.5292,3.2018,12.1159,3.9858,12.0025z"/>
	<path class="st4" d="M3.9858,17.3431c5.6181,0.0051,11.2363,0.0101,16.8544,0.0159c0.2502,0.0003,0.5049-0.0206,0.7496,0.018
		c0.673,0.1061,1.1293,0.6738,1.0989,1.3581c-0.0314,0.7062-0.4228,1.1301-1.0995,1.2733c-0.2403,0.0508-0.4987,0.0197-0.7489,0.02
		C15.2222,20.0341,9.604,20.039,3.9859,20.0441c-0.7822-0.1157-1.3032-0.5278-1.3033-1.3511
		C2.6826,17.8699,3.2018,17.4565,3.9858,17.3431z"/>
	<path class="st2" d="M8.67,37.4011c-0.8939,2.2203-0.884,4.4401,0.0037,6.6594c-1.7486,0.0003-3.4972,0.008-5.2458-0.001
		c-2.0405-0.0104-3.3291-1.3051-3.3327-3.3304c-0.0036-2.0257,1.2745-3.3124,3.3197-3.3439
		c0.1938-0.003,0.3875-0.0166,0.5813-0.0254C5.5542,37.3735,7.1121,37.3873,8.67,37.4011z"/>
	<path class="st2" d="M71.4291,44.0588c0.889-2.2186,0.8992-4.4376,0.0028-6.6569c1.5586-0.014,3.1171-0.028,4.6755-0.0421
		c0.4699,0.0269,0.9503,0.0003,1.4079,0.0902c1.6734,0.3289,2.6419,1.8052,2.4637,3.6952c-0.1618,1.7159-1.361,2.8824-3.0557,2.9076
		C75.0923,44.0799,73.2606,44.0588,71.4291,44.0588z"/>
	<path class="st0" d="M76.0785,33.3799c-1.5278,0.0001-3.0557,0.0098-4.5835-0.0021c-2.022-0.0158-3.2949-1.3359-3.2779-3.3782
		c0.0166-1.9963,1.2849-3.278,3.278-3.2925c1.5278-0.0111,3.0557-0.002,4.5834-0.002C76.0785,28.93,76.0785,31.1549,76.0785,33.3799
		z"/>
	<path class="st4" d="M3.9842,6.6604c3.9217,0.0056,7.8435,0.0195,11.7652,0.0097c0.7509-0.0019,1.3226,0.2215,1.5562,0.9725
		c0.2853,0.9173-0.3912,1.6994-1.4728,1.7019c-3.449,0.008-6.8981,0.0023-10.3471,0.0038c-0.5005,0.0002-1.001,0.0104-1.5015,0.0161
		C3.1519,9.3587,2.3195,9.3631,1.4875,9.3445C0.5749,9.3242-0.0001,8.7985,0,8.0116c0.0001-0.7884,0.5733-1.3114,1.4876-1.3314
		C2.3195,6.6621,3.152,6.6662,3.9842,6.6604z"/>
	<path class="st4" d="M3.9842,22.6823c3.9217,0.0056,7.8435,0.0195,11.7652,0.0097c0.7509-0.0019,1.3226,0.2215,1.5562,0.9725
		c0.2853,0.9173-0.3912,1.6994-1.4728,1.7019c-3.449,0.008-6.8981,0.0023-10.3472,0.0038c-0.5005,0.0002-1.001,0.0104-1.5015,0.0161
		c-0.8322-0.0057-1.6646-0.0013-2.4966-0.0199C0.5748,25.346-0.0001,24.8203,0,24.0335c0.0001-0.7884,0.5733-1.3114,1.4876-1.3314
		C2.3195,22.684,3.152,22.688,3.9842,22.6823z"/>
	<path class="st4" d="M38.6332,25.3694c-5.4251,0.1375-9.3016-3.9908-9.265-9.3701c0.0349-5.1241,3.6883-9.4335,9.4322-9.3402
		c5.4586,0.0887,9.2873,3.928,9.2574,9.5101C48.0302,21.3348,44.3561,25.5386,38.6332,25.3694z"/>
	<path class="st5" d="M61.3576,18.6936c-1.6664,0-3.3328,0.0064-4.9992-0.0022c-1.1441-0.0059-1.6129-0.4756-1.6164-1.6252
		c-0.0074-2.4716-0.0069-4.9433-0.0002-7.4149c0.0031-1.1548,0.4694-1.6325,1.6045-1.6362
		c2.4996-0.0081,4.9993,0.0082,7.4988-0.0084c0.8444-0.0056,1.3343,0.367,1.5943,1.1654c0.8156,2.5038,1.6678,4.9956,2.49,7.4972
		c0.399,1.214-0.1905,2.0108-1.4893,2.021C64.7461,18.7036,63.0518,18.6936,61.3576,18.6936z"/>
	<path class="st6" d="M15.327,37.3862c1.9905-0.0058,3.3571,1.3516,3.3588,3.3359c0.0017,1.9853-1.3635,3.3427-3.357,3.3377
		c-1.9427-0.0049-3.3004-1.3545-3.3161-3.2965C11.9964,38.7634,13.3424,37.392,15.327,37.3862z"/>
	<path class="st6" d="M64.6422,44.0592c-1.9446-0.0291-3.2699-1.4557-3.2241-3.4704c0.0444-1.951,1.4515-3.2422,3.4881-3.201
		c1.9003,0.0385,3.2153,1.4533,3.184,3.4256C68.059,42.7752,66.6629,44.0895,64.6422,44.0592z"/>
	<path class="st6" d="M40.0506,13.8766c-0.1668,0.8817,0.0282,1.8364,0.975,2.6407c0.5697,0.484,0.4402,1.2911-0.0724,1.7847
		c-0.5175,0.4984-1.2047,0.5182-1.8069,0.02c-1.1455-0.9476-2.0713-1.9748-1.7885-3.6648c0.1356-0.8103,0.0089-1.6623,0.0278-2.4949
		c0.0205-0.8987,0.5831-1.4935,1.3549-1.4733c0.7509,0.0197,1.2721,0.5827,1.3064,1.4424
		C40.0669,12.6304,40.0506,13.1308,40.0506,13.8766z"/>
</g>
</svg>
