<?xml version="1.0" encoding="utf-8"?>
<!-- Generator: Adobe Illustrator 25.2.3, SVG Export Plug-In . SVG Version: 6.00 Build 0)  -->
<svg version="1.1" id="Layer_1" xmlns="http://www.w3.org/2000/svg" xmlns:xlink="http://www.w3.org/1999/xlink" x="0px" y="0px"
	 viewBox="0 0 595.8153 183.7955" style="enable-background:new 0 0 595.8153 183.7955;" xml:space="preserve">
<style type="text/css">
	.st0{fill:#743A92;}
	.st1{fill:#0065AE;}
	.st2{opacity:0.4;clip-path:url(#SVGID_2_);enable-background:new    ;}
	.st3{fill:#FFFFFF;}
</style>
<g>
	<circle class="st0" cx="94.367" cy="91.9035" r="88.2723"/>
	<circle class="st1" cx="94.367" cy="91.9035" r="88.2723"/>
	<g>
		<g>
			<defs>
				<circle id="SVGID_1_" cx="94.367" cy="91.7406" r="88.2723"/>
			</defs>
			<clipPath id="SVGID_2_">
				<use xlink:href="#SVGID_1_"  style="overflow:visible;"/>
			</clipPath>
			<path class="st2" d="M102.0015,193.9258c0,0-47.9457-40.0961-63.16-69.6738C13.9967,66.2645,58.0386,39.6643,58.0386,39.6643
				s30.0023-23.3963,68.193-7.7768c17.8024,8.3398,55.5485,41.654,54.6187,40.9926l31.6822,35.0454l-22.4164,62.6146
				L102.0015,193.9258z"/>
		</g>
	</g>
	<g>
		<path class="st3" d="M263.864,72.9109c-4.2461-3.0596-9.1318-4.5898-14.6592-4.5898c-7.0586,0-13.0801,2.4927-18.0645,7.4775
			c-4.9863,4.9854-7.4775,11.0068-7.4775,18.0645c0,7.0088,2.4912,13.0059,7.4775,17.9902
			c4.9844,4.9863,11.0059,7.4775,18.0645,7.4775c7.0576,0,13.0791-2.4912,18.0645-7.4775c4.9844-4.9844,7.4775-10.957,7.4775-17.916
			h8.3662c-0.0498,9.1807-3.332,17.0283-9.8467,23.543c-6.6143,6.6152-14.585,9.9209-23.9141,9.9209
			c-9.3281,0-17.2871-3.2949-23.876-9.8838s-9.8838-14.5479-9.8838-23.876c0-9.3291,3.2949-17.2871,9.8838-23.877
			c6.5889-6.5889,14.5479-9.8838,23.876-9.8838c9.3291,0,17.2998,3.2832,23.9141,9.8467l2.8877,3.5537l-26.875,26.8008l-6.293-6.293
			L263.864,72.9109z"/>
		<path class="st3" d="M368.9939,59.6584l-67.2988,67.7427h-9.1797V59.1404h9.1797v55.3789l54.3428-54.8608H368.9939z"/>
		<path class="st3" d="M410.7508,72.9109c-4.2461-3.0596-9.1318-4.5898-14.6592-4.5898c-7.0586,0-13.0801,2.4927-18.0645,7.4775
			c-4.9863,4.9854-7.4775,11.0068-7.4775,18.0645c0,7.0088,2.4912,13.0059,7.4775,17.9902
			c4.9844,4.9863,11.0059,7.4775,18.0645,7.4775c7.0576,0,13.0791-2.4912,18.0645-7.4775c4.9844-4.9844,7.4775-10.957,7.4775-17.916
			h8.3662c-0.0498,9.1807-3.332,17.0283-9.8467,23.543c-6.6143,6.6152-14.585,9.9209-23.9141,9.9209
			c-9.3281,0-17.2871-3.2949-23.876-9.8838s-9.8838-14.5479-9.8838-23.876c0-9.3291,3.2949-17.2871,9.8838-23.877
			c6.5889-6.5889,14.5479-9.8838,23.876-9.8838c9.3291,0,17.2998,3.2832,23.9141,9.8467l2.8877,3.5537l-26.875,26.8008l-6.293-6.293
			L410.7508,72.9109z"/>
		<path class="st3" d="M447.7683,127.4011h-8.8848V60.029h8.8848v10.8091c0.3447-0.3945,0.6904-0.7646,1.0361-1.1108
			c6.5635-6.5635,14.5107-9.8467,23.8389-9.8467c9.3291,0,17.2881,3.2949,23.877,9.8838c6.5889,6.5898,9.8838,14.5479,9.8838,23.877
			v33.7598h-8.8848V93.6413c0-7.3047-2.3447-13.3516-7.0332-18.1392c-4.7383-4.7866-10.6367-7.1812-17.6943-7.1812
			c-7.0586,0-13.0801,2.4927-18.0645,7.4775c-4.6895,4.6895-7.0332,10.3164-7.0332,16.8799v1.1846L447.7683,127.4011z"/>
		<path class="st3" d="M515.3621,38.1145h8.8838v21.248h15.0293v8.8843h-15.0293v59.1543h-8.8838V38.1145z"/>
		<path class="st3" d="M562.5964,88.903c-3.998,0-7.416-1.4189-10.2539-4.2578c-2.8389-2.8369-4.2568-6.2559-4.2568-10.2534
			c0-3.998,1.418-7.415,4.2568-10.2539c2.8379-2.8379,6.2559-4.2573,10.2539-4.2573c3.8496,0,7.1562,1.3086,9.9209,3.9238
			l-5.627,5.4048c-1.2344-0.9868-2.6406-1.4805-4.2197-1.4805c-1.8262,0-3.3945,0.6543-4.7012,1.9619
			c-1.3086,1.3081-1.9619,2.8755-1.9619,4.7012c0,1.8267,0.666,3.3813,1.999,4.6646c1.085,1.1357,2.3936,1.8018,3.9238,1.998
			c6.2676,0.0498,11.6475,2.2959,16.1396,6.7373c4.54,4.542,6.8115,10.0205,6.8115,16.4365c0,6.417-2.2715,11.8828-6.8115,16.3984
			c-4.542,4.5166-10.0205,6.7744-16.4355,6.7744c-6.3672,0-11.8213-2.2578-16.3623-6.7744
			c-4.542-4.5156-6.8115-9.9814-6.8115-16.3984h7.4775c0,4.3936,1.5547,8.1318,4.665,11.2158
			c3.1094,3.0859,6.8594,4.6279,11.2529,4.6279c4.3428,0,8.0703-1.542,11.1797-4.6279c3.1094-3.084,4.6641-6.8223,4.6641-11.2158
			c0-4.3428-1.5547-8.0703-4.6641-11.1797C570.4187,90.3347,566.9392,88.9529,562.5964,88.903z"/>
	</g>
	<g>
		<path class="st3" d="M153.1711,116.1169c0.9098-2.6651,1.6357-5.3894,2.1726-8.1539c1.2218-5.8985,1.3953-11.773,0.8069-17.6484
			l-8.3142-4.7947l-6.7009,4.389c0.0595,5.849-0.9195,11.6621-2.8914,17.1689l-0.4428,1.2132l9.8043-0.974l5.5932,8.7943
			L153.1711,116.1169z"/>
		<path class="st3" d="M152.0095,119.1756l-5.8317-9.1133l-9.6662,0.8883c-2.8363,6.1494-7.1437,11.5054-12.5414,15.5949
			c-0.4898,0.3936-0.9865,0.7533-1.502,1.1066l9.8738,5.2419l-0.084,11.8454c5.5071-4.0547,10.2594-9.0449,14.0406-14.7432
			c2.2745-3.3828,4.1941-6.9912,5.7283-10.7678l-0.0168-0.0541L152.0095,119.1756z"/>
		<path class="st3" d="M72.0937,67.6205c1.5238-1.4068,3.175-2.6688,4.9325-3.7698l-15.178-8.0666l0.2063-18.7867
			c-2.641,1.6222-5.1747,3.4129-7.5854,5.3609c-6.3206,5.0966-11.6121,11.3508-15.5916,18.4281
			c-4.0403,7.1492-6.559,15.0564-7.3979,23.2253c-0.0192,0.1594-0.0253,0.3272-0.0502,0.4883l13.9914,11.0314l14.6333-6.6059
			l0.0587-0.3057c1.7626-8.3006,5.6838-15.3071,12.0398-21.0201l-0.0607,0.0124L72.0937,67.6205z"/>
		<path class="st3" d="M128.1553,32.7169c-1.7337-0.7924-3.529-1.4917-5.3564-2.1499c-7.6722-2.6801-15.7456-4.0312-23.8724-3.9951
			c-8.0543,0.072-16.0421,1.4676-23.6437,4.1308c-3.6371,1.3264-7.1634,2.9389-10.5457,4.8223l-0.1957,18.7845l15.2296,8.1242
			c4.638-2.2757,9.744-3.435,14.91-3.3852c6.4128-0.0119,12.2288,1.6527,17.3965,4.8267l-1.6336-19.8742l17.7459-11.1393
			l-0.0293-0.1438L128.1553,32.7169z"/>
		<path class="st3" d="M129.5993,146.5312l0.0873-12.1111l-9.7365-5.1325c-5.5525,3.3839-11.6776,5.1451-18.3662,5.3861
			c-1.8638,0.1165-3.7337,0.0935-5.5941-0.0687l5.2956,11.7048l-8.6074,10.9111c13.0277,0.282,25.8362-3.3815,36.7445-10.5096
			l0.1976-0.1323l-0.0212-0.0475L129.5993,146.5312z"/>
		<path class="st3" d="M92.9117,134.1904c-5.0743-0.8309-9.9529-2.5864-14.3933-5.1791c-3.3812-1.8855-6.438-4.3011-9.054-7.1549
			l-4.4918,13.585l-15.9696,2.5661c3.3291,3.5137,7.065,6.6183,11.1285,9.2482c6.8535,4.4199,14.515,7.4377,22.5417,8.879
			c2.1985,0.3851,4.4158,0.6538,6.6426,0.8051l8.7659-11.2034l-5.3168-11.7003l0.1465,0.1542L92.9117,134.1904z"/>
		<path class="st3" d="M67.4742,119.4981c-1.8685-2.3995-3.4451-5.0126-4.6968-7.7843c-2.9088-6.3577-3.9751-12.9144-3.1987-19.6703
			l-14.5384,6.5636L31.1809,87.688c-0.3804,6.9503,0.2624,13.9187,1.9078,20.6821c1.8631,7.9259,5.2004,15.4308,9.8378,22.123
			c1.2362,1.798,2.5693,3.5274,3.9932,5.1807l16.0686-2.5918l4.4863-13.5839L67.4742,119.4981z"/>
		<g>
			<path class="st3" d="M119.8092,70.3256l1.2093,1.83l30.5213-21.2933c-5.5887-6.9205-12.5781-12.6486-20.5651-16.7731
				l-0.0001-0.0007l-17.7943,11.1896l1.6705,20.4724c0.6268,0.4653,1.221,0.9729,1.7785,1.5194
				C117.7432,68.2371,118.8036,69.2578,119.8092,70.3256z"/>
		</g>
		<g>
			<path class="st3" d="M151.5398,50.8623c-1.6728,1.0261-60.1037,39.6703-60.1037,39.6703l2.9771,4.6175l62.2612-36.9485
				C156.6744,58.2016,154.7601,55.0718,151.5398,50.8623z"/>
			<circle class="st3" cx="93.4468" cy="91.7406" r="9.3805"/>
		</g>
	</g>
	<rect x="195.0009" y="18.6583" class="st3" width="2.6422" height="147.3025"/>
</g>
</svg>
